<mxfile host="app.diagrams.net" modified="2023-05-04T03:57:35.440Z" agent="Mozilla/5.0 (Windows NT 10.0; Win64; x64) AppleWebKit/537.36 (KHTML, like Gecko) Chrome/112.0.0.0 Safari/537.36 Edg/112.0.1722.64" etag="y_aI3yJn6hde9kLkdwHU" version="21.2.7" type="device">
  <diagram name="Page-1" id="_-O40Qb-xRCRFWJeqaYn">
    <mxGraphModel dx="1740" dy="973" grid="1" gridSize="10" guides="1" tooltips="1" connect="1" arrows="1" fold="1" page="1" pageScale="1" pageWidth="850" pageHeight="1100" math="0" shadow="0">
      <root>
        <mxCell id="0" />
        <mxCell id="1" parent="0" />
        <mxCell id="S_TmdCK1cwZr30OneqsV-1" value="&lt;font face=&quot;Roboto Mono&quot;&gt;from_user_id&lt;/font&gt;" style="text;html=1;strokeColor=none;fillColor=none;align=left;verticalAlign=top;whiteSpace=wrap;rounded=0;spacingLeft=6;" vertex="1" parent="1">
          <mxGeometry x="160" y="80" width="120" height="30" as="geometry" />
        </mxCell>
        <mxCell id="S_TmdCK1cwZr30OneqsV-2" value="&lt;font face=&quot;Roboto Mono&quot;&gt;friendships&lt;/font&gt;" style="text;html=1;strokeColor=none;fillColor=none;align=left;verticalAlign=top;whiteSpace=wrap;rounded=0;spacingLeft=6;" vertex="1" parent="1">
          <mxGeometry x="320" y="80" width="120" height="30" as="geometry" />
        </mxCell>
        <mxCell id="S_TmdCK1cwZr30OneqsV-3" value="" style="shape=image;verticalLabelPosition=bottom;labelBackgroundColor=default;verticalAlign=top;aspect=fixed;imageAspect=0;image=data:image/png,iVBORw0KGgoAAAANSUhEUgAAAxoAAAEdCAIAAAAEuIaUAAAAAXNSR0IArs4c6QAAIABJREFUeJzt3XtcVGX+B/BnhIGZgUHCakvTwFuIF9DBpDC7iZqbZYpQqFwMNcHWxGx3vdsm7m836SqkosBqKohmZeVtzSUJEgZBAvHKlKZdvKBcZphL8/vj1EQzxO08Z85z4PN+7R8jjs959stzvn3mmTNnZFarlQAAAABAR3UTewIAAAAA0oY4BQAAAMAL4hQAAAAAL4hTAAAAALwgTgEAAADwgjgFAAAAwAviFAAAAAAviFMAAAAAvCBOAQAAAPCCOAUAAADAC+IUAAAAAC+IUwAAAAC8IE4BAAAA8II4BQAAAMAL4hQAAAAAL4hTAAAAALwgTgEAAADwgjgFAAAAwAviFAAAAAAviFMAAAAAvCBOAQAAAPCCOAUAAADAi6vYEwCnMplMOp2uvr7eYDAYjUY3NzeFQuHh4eHr6yuXy8WeHQBIAzoJgB3EqU7OZDJVVlZqtVqtVltcrD15ssxgMDg+TaFQDBsWGBys4QQEBKAnAoANOglAy2RWq1XsOYAgioqKUlNTc3JyGhoaZDKZX/+Bg4YMHzQ0qL//YE+1l7tCIXdzMxmNjQZDXe2tc1UVp8pLT5WXVJ8/a7VaVSpVREREYmJicHCw2P8/AEBM6CQAbYE41dno9fqdO3euT03VFhf3vKfP5GdjNKNC7xs8zMNT3ZZ/Xl9Xe7ripPar/L07sy5f+jY4eGRiYkJkZKRSqRR65gDADnQSgHZBnOo89Hr9mjVrUlNTa2pqHnwkLGJmfOij41xcXDo2msViyf/8YM7W9C+PHvL29k5MTFyyZAlaIUCnh04C0AGIU51EQUFBbFycTqeLjJkzbUZ8b9++tEa+qLuwa1t6dtZGX1/frMzMkJAQWiMDAGvQSQA6BjdKkDy9Xr948eLRo0e7KdU7Pj2WtCyZYgckhPT27Zu0LHn7J8fclOrQ0NDFixfr9XqK4wMAC9BJAPjA7pS0FRYWxsTG6nS6eUlLZ8x+0dVVwI9qms3mrRvffi9lja+fH15cAnQm6CQAPGF3SsJyc3PHjBnDvZSMnbdQ0A5ICHF1dY1LSNr+ab6bUj1mzJjc3FxBDwcAzoFOAsAf4pRUbd68OTIy8vGJk7fsPth3gL/TjttvoP+W3Qcfe+LpyMjILVu2OO24ACAEdBIAKnAbT0navHlzfHx8+Izn//aPdR3+xE2HyeXyNW+le6q9nn/+eULIrFmznDwBAKACnQSAFsQp6cnNzZ0zZ074jOeXrHlDJpOJMgcXF5elyW/KZLLZs2d7eXmFh4eLMg0A6DB0EgCKcCm6xBQWFo4ZM+bxiZPXvJXerZvI79VaLJalC+KPfPZhXl4ericFkBB0EgC6EKekRK/XBw0f7qZUb9l9kJFvwjKZTLOmjjPqa0tPnMCt+QAkAZ0EgDpcii4lK1as0Ol0q9elMdIBCSFyuXzV62m66uqVK1eKPRcAaBN0EgDqEKcko6CgYN26dfOSljrz0zdt0W+g/wtJS9etW1dYWCj2XACgFegkAELAm33SwG3Ou6vUGXsOO/8DOK0ym81xU8KwUQ/AOHQSAIFgd0oakpOTdTrdqtfTGOyAhBBXV1duoz45OVnsuQDAH0InARAIdqckQK/X9+rV68lpM5KWMd1iUl5b8knu+5cuXcLLSgAGoZMACAe7UxKQnZ1dU1MzbUa82BNpxbQZ8devX8/JyRF7IgDQDHQSAOFgd0oCgkeOVKh93s3aLfZEWjc/ekpjXU1R0XGxJwIA9tBJAISD3SnWFRUVaYuLI2ay/oKSM21mfHFxUVFRkdgTAYDfQScBEBR2p1gXFxd38PCRj744yfPS0Z9//vlU+Ynj+f8rOZ5/5dLFaz/9UFdX66n26n9fwKPjJz3zXIxSqeI/W4vFMmn00PFhj2dkZPAfDQBoodVJbEq+yv9o17aS4wVXf/yeEOLT4457+w0YFfrw5MhoL+/beA6OTgKSgzjFNJPJ5O3tHZuwaPZfXuE5VEVZyYxJD//R3/b27Ze2bW+vPr48j0II2fjW/2Wlpdy8edPVFd8ICcAEip2EEGIyGl/96/x9u3c0+7dbcg8Mv/9B/kdBJwFpwZt9TKusrGxoaNCMCqU7bLdu3TzVXk1/clF3PmlOlMVi4T+4JiS0oaGhsrKS/1AAQAXdTvJKQrRdllJ7eVP/4j90EpAWxCmmabVamUzmPySQ1oChj457a0vOl1U/fFHx3WeFp0Y/Ns72V2cqy7WFx/gfwn9woEwm02q1/IcCACoodpI9OzKPHvyEe9x3gP9bW3IKzvyY9/XF4+evf5hXujT5rTvv6sn/KASdBKQGcYppWq3Wr98AlYcn/6Fu63H7ppzP3s3aPWbsE+4KBSHkrp73rH0nw8NTbXvO6cqT/A/k4an27dsfTRCAHbQ6yc8//5yZ+gb3+LYet7+3/eMxY59QKJSEEBcXlz6+/cJnzKJyzQBBJwGpwXvSTCsu1g4aOoLKUD3v6dPznj52P/RUe/n2G1hRRrlhDRo2orgYTRCAFbQ6yanyExe/ucA9fiTsz58f+PjQJx9c+lanVCrvGxw4NSou+IGH+B/FBp0EJAS7U+wymUxlZaWDhgYJdwiLxfL95Yu2P/a/L4DKsIOGBpWVlZrNZiqjAQAfFDtJmfa3G0F9+kH22mVJxQVffP/dxepzZ/Z/uGt25MS3kpfzP4oNOglICOIUu3Q6XWNjY3//wcIdYvf2jGs//cg9vqeP36jRj1IZdoD/EIPBUF1dTWU0AOCDYidp+uqrsdHg+ITM9978MGcr/wNx0ElAQhCn2FVfX08IsfsIHkX5Rw+9vvqv3GNXuXzl66m0PpvjqVYTQhoaGqiMBgB8UOwkdbduNf1j6KPjPi2oPKw9/3TkTNsP30tJpnX/HXQSkBDEKXYZDAZCCHfZOHWHPtm7MP5Zk9FICOnWrdvq19OCQ0bTGtzNXUF+nT8AiItiJ5G7uTX949LkN+/u1bvHHXf+dfW/bR9q+f7ypepzp/kfi6CTgKQgTrHLaDQSh/5FxZ4dmX9LjOGylKtcvubtzROfiaQ4vpubGyGksbGR4pgA0DEUO0nT2517db/t7l69ucdKlcc99/rZ/urH76/wPxZBJwFJwSf72MW1Ei70UJSZ9sZba1dwjxVK1b/f2zr60XEt/5P24tq3u7s73WEBoAModpL+A3/7tEo3l9+9Gu/W7bfvrqF17qOTgIRgd4pdCoWCENJIdaP7rbUrbFnKq/tt723/iHqWIoQYGw3k1/kDgLgodpIRo0JtX/lXc/2a7YMsxsbGS9/8csG4TCbr49ef/7EIOglICuIUuzw8PAghdbW3Wn1mW/z888+v/e0vmWm/3ILvjj/dvSX3QKBmFJXB7dTV1hJCVCoK36kMADxR7CR3/Omu0CYvwNb94+8Gg95kMqWte632Vg33w0DNqB533Mn/WASdBCQFb/axy9fX193d/VxVxajRj/Af7UTRl7u3//bd7PV1tXOjnrR7TvScv0TPXcD/WGervlYoFH5+fq0/FQAERreTJC1PPn7sqMGgJ4R8tjfn0L49sm7dbO8kurq6Lvj7q/yPwkEnAQlBnGKXXC4PDAw6VV5KZTTrz7/76HJDfV1DfZ3dcxrq66kc61R5aWBgEL4HHoAFdDvJvX7939ic/fLc6fV1tYSQpvfYdHdXrPz3+qCRD1A5EEEnAUnBm31MCw7WnCovEXsW7XbqZElwsEbsWQDAL+h2kpCHHv3g85KZc17sO8BfqfJQKJT39u0fGTNn16GvnpgcQesoBJ0EJAWpn2kajSYtLa2+rrbpFxV3TPADD534tpbKrFpWX1eru3BOo/m7E44FAG1BsZNw7vjTXUnLkpOWJVMZrVnoJCAt2J1imkajsVqtpytOij2RdqiqKLNarRoNXlMCsAKdBEBoiFNMCwgIUKlU2q/yxZ5IO2gL81UqVUAAnW9TBgD+0EkAhIY4xTS5XB4REbF3Z5bFYhF7Lm1isVj27syKiIjA1aMA7EAnARAa4hTrEhISLl/6Nv/zg2JPpE2OHTlw5buLiYmJYk8EAH4HnQRAUDJaX/0NwgkeOVKh9nk3a7fYE2nd/OgpjXU1RUXHxZ4IANhDJwEQDnanJGB+YuKXRw9d1F0QeyKtuKi7kH/00Pz5eEEJwCJ0EgDhIE5JQGRkpLe3965t6WJPpBW7tqX7+PhERNC88QwA0IJOAiAcxCkJUCqViYmJ2VkbL5ytEnsuf+j8marszA0JCQlKpVLsuQBAM9BJAISDa6ekQa/XBw0f7qZUZ+w5xOBHXcxmc9yUMJOhrvTECXz9OwCz0EkABILdKWlQKpWZGRmVJ0u2bXpH7Lk0Y+vGtytPlmRmZKADArAMnQRAIIhTkvHAAw8kJSWlpaxhbaP+/Jmq91LWLFq0KCQkROy5AEAr0EkAhIA3+6TEtlG/ZfdBuVwu9nQIIcRkMs2aOg6b8wASgk4CQB12p6REqVRmZWaerihbkTSXhbsbWyyW5QvnnK4ow+Y8gISgkwBQhzglMSEhIdu3bz/48e61y5LE3Vm0Wq1rlyUd2rdnx44d2JwHkBZ0EgC6mPtkB7TKbDZbrdbd72+RyWR/+8c6FxcX58/BYrGsXbpw9/aMd955Z+rUqc6fAADwZDKZ2Okk7777LjoJSBp2pyRm586d06dPj46O3rRp057tGctemm0ymZw8B5PJtHRB/Ac7s5RK5fvvv3/z5k0nTwAAeNqxY8eMGTNiYmIY6STbtm27deuWkycAQBF2p6SEy1IzZ87cvHmzi4uLt7d3VFTUpW+qV72e1m+gv3PmcP5M1aqX552uKMvJyfH19R07duyECRP279/fvXt350wAAHjislR0dHR6ejoLneTee+8NCwsbP378gQMHvLy8nDMBALqwOyUZdlmKEBIeHp6Xl2fU10b9eXRGaorZbBZ0AmazOSM1JWpiqFFfm5eXN3XqVI1Gc/jw4aqqqgkTJmCPCkAS7LIUYaCTBAcHHzp0qKqqavz48dijAonCjRKkwTFL2ej1+hUrVqSkpAQMG7F6XVrfAYK8uOReSlaeLFm0aNHq1aubfv+DVqsdO3asv78/9qgAGOeYpWxE7yTFxcVhYWH+/v7YowIpQpySgBaylE1BQUFsXJxOp4uMmTNtRnxv3760jn5Rd2HXtvTszA2+fn5ZmZnNfvQGiQqAfS1kKRtxOwkSFUgX4hTr2pKlOHq9Pjk5OTU19fr166GPhE2bGT/6sfEd/rSOxWI5duTArq3p+UcP+fj4JCQkLFmypIUvJUWiAmBZW7IUR9xOgkQFEoU4xbS2ZykbvV6fnZ29fn1qcXFRz3v6PB0ZrQkJ9R8c6OGpbss/r6+rraoo0xbm792ZdeW7iyNH3p+YmBAREdGWb3dHogJgU9uzlI2InQSJCqQIcYpdHchSTRUVFaWmpubk5DQ0NMhkMr9+A/yHDh80NGiA/xBPtdrNXeHm5mY0Go2Nhrra2rNVX58qLz11skR34ZzValWpVBEREYmJicHBwe06KBIVAGs6kKWaEqWTIFGB5CBOMYpnlrIxm82VlZVarVar1RYXa8vKSg0Gg+PTFApFYGBQcLCGExAQ4OrawZtoIFEBsINnlrJxfidBogJpQZxiEa0s5chsNldXVzc0NJSWlsbGxmZmZgYFBalUKj8/vw53PUdIVAAsoJWlHNk6icFgaGxsdHd3VygU1DsJEhVICOIUc4TLUk2VlJRoNBqtVjtixAghxkeiAhCXcFnKmZCoQCpwG0+2OCdLOQHu8Akgos6RpQghuMMnSAXiFEM6TZbiIFEBiKLTZCkOEhVIAuIUKzpZluIgUQE4WSfLUhwkKmAf4hQTOmWW4iBRAThNp8xSHCQqYBzilPg6cZbiIFEBOEEnzlIcJCpgGeKUyDp9luIgUQEIqtNnKQ4SFTALcUpMXSRLcZCoAATSRbIUB4kK2IQ4JZoulaU4SFQA1HWpLMVBogIGIU6JowtmKQ4SFQBFXTBLcZCogDWIUyLoslmKg0QFQEWXzVIcJCpgCuKUs3XxLMVBogLgqYtnKQ4SFbADccqpkKVskKgAOgxZygaJChiBOOU8yFJ2kKgAOgBZyg4SFbAAccpJkKWahUQF0C7IUs1CogLRIU45A7JUC5CoANoIWaoFSFQgLsQpwSFLtQqJCqBVyFKtQqICESFOCQtZqo2QqABagCzVRkhUIBbEKQEhS7ULEhVAs5Cl2gWJCkSBOCUUZKkOQKICsIMs1QFIVOB8iFOCQJbqMCQqABtkqQ5DogInQ5yiD1mKJyQqAIIsxRsSFTgT4hRlyFJUIFFBF4csRQUSFTgN4hRNyFIUIVFBl4UsRRESFTgH4hQ1yFLUIVFBF4QsRR0SFTgB4hQdyFICQaKCLgVZSiBIVCA0xCkKkKUEhUQFXQSylKCQqEBQrmJPQEAmk0mn09XX1xsMBqPR6ObmplAoPDw8fH195XI5raMgSzkBl6jGjh07YcKE/fv3d+/endbIzlkk0oKa2HFOQZClnIBLVGFhYePHjz9w4ICXlxetkXHWOOpqNelUccpkMlVWVmq1Wq1WW1ysPXmyzGAwOD5NoVAMGxYYHKzhBAQEdPhXiyzlNLQSlfMXCftQEzvOLwiylNPQSlQ4axx18ZrIrFar2HOgoKioKDU1NScnp6GhQSaT+fUfOGjI8EFDg/r7D/ZUe7krFHI3N5PR2Ggw1NXeOldVcaq89FR5SfX5s1arVaVSRUREJCYmBgcHt+ugks5SJSUlGo1Gq9WOGDFC7Lm0g1arHTt2rL+/fwcSlSiLhHGoiR1RCoIs5XzFxcVhYWH+/v4dSFQ4axyhJkTqcUqv1+/cuXN9aqq2uLjnPX0mPxujGRV63+BhHp7qtvzz+rra0xUntV/l792ZdfnSt8HBIxMTEyIjI5VKZav/VtJZikg2TpH2JyoRFwmzUBM7IhYEWUos7U1UOGscoSZNSTVO6fX6NWvWpKam1tTUPPhIWMTM+NBHx3W4GVkslvzPD+ZsTf/y6CFvb+/ExMQlS5a08BuVepYiUo5TpM2JStxFwibUxI64BUGWElcbExXOGkeoiSNJxqmCgoLYuDidThcZM2fajPjevn1pjXxRd2HXtvTsrI2+vr5ZmZkhISGOz+kEWYpIPE6RNiQqcRcJm1ATO+IWBFmKBa0mKpw1jlCTZknsRgl6vX7x4sWjR492U6p3fHosaVkyxV8kIaS3b9+kZcnbPznmplSHhoYuXrxYr9c3fULnyFKdQAt3TxB9kTAINbEjekGQpRjRwt0TRF8kDEJNWiCl3anCwsKY2FidTjcvaemM2S+6ugr4sUSz2bx149vvpazx9fOzZeTOlKWkvjvFcdyjEn2RMAg1sSN6QZClWOO4RyX6ImEQatIyyexO5ebmjhkzhkvEsfMWCvqLJIS4urrGJSRt/zTfTakeM2ZMbm5uZ8pSnYbdHpXoi0TQw3UMamJH9IIgSzHIbo9K9EUi6OE6BjVplTR2pzZv3jxnzpxxk6a+mrLByTeoMJlMyxfOObRvj9VqjY6O7jRZqnPsTnG4PSofHx+dTifuItm0adOsWbOceeiWsXDiMFUTFgpitVpjYmKQpRjE7VGhkzhi4cRhrSaOXFatWiX2HFqxefPm+Pj4qdNnrfjXu0InYkcuLi6Pjp909cfvK8tPzJ8/X+o3xrC5cuXKxo0b586de/fdd4s9F7569uxZX1//4YcfTomKW/mv9aItkp9++Odrq/v06TN8+HAnT6BZTJw4LNWEiYL8+H1l+YlOcIudTgmdpFlMnDiM1aRZrN8VPTc3d86cOeEznl+y5g2ZTCbKHFxcXJaufUvWrdvcuXO9vb3Dw8NFmQb8kdzc3OTkZPEXSfKbMpls9uzZXl5eoi8SVk4cZmrCSkHQSRiGTuKIlROHpZr8Eabf7CssLBwzZszjEyeveSu9WzeRL/OyWCxLF8Qf+ezDvLw8SVwW17JO82YfFokj1MQOCgKtwiJxhJq0C7txSq/XBw0f7qZUb9l9kJEv9DGZTLOmjjPqa0tPnJDcHcbsdI44hUXiCDWxg4JAq7BIHKEm7cXuJ/tWrFih0+lWr0tj5BdJCJHL5ateT9NVV69cuVLsuQAhWCTNQU3soCDQKiwSR6hJezEapwoKCtatWzcvaWnfAf5iz+V3+g30fyFp6bp16woLC8WeS1eHReIINbGDgkCrsEgcoSYdwOKbfdweo7tKnbHnMIOfJTabzXFTwpjdb2wjqb/Zh0XiCDWxg4JAq7BIHKEmHcPi7lRycrJOp1v1ehqDv0hCiKurK7ffmJycLPZcui4sEkeoiR0UBFqFReIINekY5uKUXq9fv359ZMwc1vYYm+o30D8ydm5qaqqEvk6oM8EicYSa2EFBoFVYJI5Qkw5jLk5lZ2fX1NRMmxEv9kRaMW1G/PXr13NycsSeSFeEReIINbGDgkCrsEgcoSYdxty1U8EjRyrUPu9m7RZ7Iq2bHz2lsa6mqOi42BPpCElfO4VF4gg1sYOCQKuwSByhJh3G1u5UUVGRtrg4YibruZgzbWZ8cXFRUVGR2BPpWrBIHKEmdlAQaBUWiSPUhA+2dqfi4uIOHj7y0RcnaV0BV1zwxa6t6aXFhTeuX/VUew3wH/LnKc9OCo+icrN8i8UyafTQ8WGPZ2Rk8B/NyaS7O0VxkXx+cN/xY/+rLC/58fsrNdevmc0mtVf3Pr79Qh56bNrM+B533Ml/ts5ZJNRPHI6xsTFywgO682dtP/kk/+ueve/lOawTakKxICuS5n6cu/2P/vbBh8eu3/oBz0NIupNIF92z5vrVn7KzNhbkHf62+nx9Xa2rq/y22+/wHzxs/KTwsCef4X9Lccl1kvq62txtm48c+Fh37qxeX3+bz+2BmlHhM56/P/RhKlMl7J04DO1OmUymnJycyc/G0PpPQsprS2ZHTjy4b8+P3182GY03rl09nn905aIX5j73pL6hnv/4Li4uk5+NycnJMZvN/EeDtqC7SN5LSd6Z+d5J7fHvv7to0DeYTaYb166Wab/a8ObayY+OOHH8S/6HcMIioX7i2GxZv65plqJF6JoIVxCBoJM4H91FUqb9avIjIza+9c/yE8U3a26YzWaDQX/l0refH9j3t/mx86OnmEwmnoeQVic5f/pU5PgH30xeflJ7/NbNGyaj8cfvLx/65IO5zz35r5Wv0NrEYe3EYShOVVZWNjQ0aEaFUhlt66Z3tm58x/ZHT6/uttcHRV/mLXtpNpWjaEJCGxoaKisrqYwGraK7SGzkbm5qL++me5Z1t24ufWn2zz//zH9woReJQDX55sLZjLQUumPaCFoTgQriKpf3uONOu/95ed9GZXB0EiejuEisVuvyl+bU3qqx/cTDU+3q6mr7Y0Hef3f9ZxP/A0mlk9TX1c6PmfLdRZ3tJ0qVh+3xjoy0zLQ3eB7ChqkTh6E4pdVqZTKZ/5BA/kPduH41bd0a7rG7u2LDjn1ffH3p42Pl9/btz/3wyP6PC/OO8D+Q/+BAmUym1Wr5DwVtQXGREEKejpj5dsauz8t0x89dy/v6Yt7Xl+a/ssL2t1cufXvhbBX/owi9SOjWxGbNkpeMjY2EELmbG92RicA1EagggZpRh7Xn7f639p0tVAZHJ3Eyiovkwpmqi99c4B67uyvSd312rPJyXsV3458Ktz3nq/yj/A8klU6ya2v695cvcY8HDR1+sOjsl1Xfb9z5iZu7O/fDDW+svfbTjzyPwmHqxGErTvn1G6Dy8OQ/1P4Pc21v5z0VMYN7s7bnPX3mJS2zPWfPjkz+B/LwVPv27c/I77IroLhICCFRs+Y99PgE79t6cH/0VHs9P3+xp9rL9gQuT/Ak9CKhWxPOR7u2FX2ZRwh5atr02++8i+LIHEFrIkRBhIZO4mQUF4nB8Nutj/oOHKQZNZoQolSqJk6OsP3c3V3B/0BS6SRf/u+w7XH8iy/f8ae7CCEjHxzz2ISnuB82Nho+2bOD51E4TJ04DMWp4mLtoKF0Los+3uSlwMgHxvz2+MHfHn91jMLLBULIoGEjiouZ+F12BRQXiaO62lsZqSl1tbe4PyoUStt2Jk+CLhLqNam5ce2NNcsIId4+PRYuW0Nx5KaEq4lAi6T63OnoyY89ETLomUdHLJgVsfv9LY0GA8Xx0UmcieIiubdvf1taunDmVGlRASFEr2/4dO9vt0R66PEJVI4liU7y4/eXbY/v6tm7yeN7bI+LCvL4H4jDzonDSpwymUxlZaWDhgZRGe3sqQrb4569+9ge+9x+h0Lxy1f83Lp544cr3/E/1qChQWVlpYxcCte50V0kNq/Mix6r6ffQkHvGDLnn7X/+9kXlsxf81cNTTeUQwi0SIWqS8o8lNdevEUKSliXbtu6oE6gmAi0SQsj1qz+VlxR9f/mS7vzZvMOfvfb3Bc9NDP1Wd57W+OgkTkN3kXiqvZ5/cTH3uLHREDd13EODe40Z3OvAR7ncD5+Lm/fk1OeoHEsSnUShVNke/3DlUpPHv/0H99zpU/wPxGHnxGElTul0usbGxv7+g6mMVnPjmu2xp1f3pn/V9K2cG9eu8j/WAP8hBoOhurqa/1DQMrqLxOZmzY1rP/1Yd+um7fMmAwYNeX3DtlmJi2gdQrhFQr0mxQVfcPcFuP/BhyeFR9Ea1pFANRFokTSr+tyZv8SG09qjQidxGuqLZPZfXlm9Lq2PXz/uj3W1t7j/usvd3F57c9Mrq/9F5dY8RCKdZPCw37a4Nr+77uqPPxBCiguPHfnsI9vPb9Xc4H8gDjsnDitxqr6+nvw+6/Bh0DfYHru6uDb9K1e53PaYyu0SPNVqQkhDQ0OrzwSe6C6SFlSfO/3fzz6qvVnT+lPbRrhFQrcmxsbGNUsWEELc3N2XrH2Typh/RKCaUF8kKg/PZ56NeTtj12Ht+a/OXt3936LJz0bb/vabC+c+3LWNyoHQSZyG+iIxmUwXv6m+5dAxTEYWVzj7AAAd0ElEQVTjspdmr1qcQGvvRBKdJDJ2ru1WCxVl2nEjB4QOunt2xBONjb+98DAaKVyWymHnxHFt/SlOYTAYCCHuCgrX6xFCFEpVfV0t99hs/t0NP8xN7v/R9NObHebmriC/zh8ERXeR2GzY8TEhpPbWzW8unP3PhrcPffKB2WT6bG9O9bnT2z7+H5Xb0nCLpLS01GKx8B+tqfLyckKvJrYbTcW/+Mq9fnSuG/sjAtWEbkEIIX999fWmWwt9B/iv/Nf6WzU3juz/mPtJ/pEDVO4ijU7iNHQ7idVqXRA3rSDvv4QQhUK58vXUhx4bf+Pa1X+veiXvv/sJIR9mb727V5+5L/2N/7Ek0UkGDhqydO1byUte4kKk1WptqK8jhLi6utpipfr37xrxwc6Jw0qcMhqNhN5Hsr1v62GLU7W3bjb9q6Z/vK3H7fyP5ebmRghppPERMGgZ3UViR+3VfUhQ8P+lZv0w5buT2uOEkKqvyw7u2/PE09P4D84tktjYWP5DNYtKTfT6Bu5GU37974t94SX+A7ZM0JpQXCTNvk0z9s/P2OLUdxe/oXIgdBKnodtJjh7cx2UpQsjkZ2MmPBVOCPHwVK9Oee/x4X25e9ftzEijE6ek0EkIIc88G+M/OPA/G9/WFh67cf2qV3fvkQ8+PCk8an70FO4Jd919T8sjtB07Jw4rcYqriMlopDLagEGDbfcQ++7bb4YEBXOPr/74g22/0av7bX+6uxf/Y3Fnpvuvd9QA4dBdJM2SyWTDRtzPxSlCyKnyE1TiFLdIMjMzhw4dyn+0psrLy2NjY6nUxGw0cjeGqD53+v7+zV+B/ufQIYSQ1evSnpo2g+fhBKoJxYK0wNX1t2sGqNzrlaCTOBHdTlJaXGh73HeAv+2x9209vH16XL/6EyGk5sb1mhvX+H+wQxKdhDNoaJDdXdk++3CX7fHQESNpHYidE4eVOKVQKAghtC7qvD/0kaMHP+EeFxXkjX9qqu1xk+fQ+eYgY6OB/Dp/EBTdRVJ7s0bd3dvx52cqv7Y9NlJqLtwiCQoKCgykfG9J7l7/dD+x7xwC1YRuQS5f/Eav1/cb6G/38y/++5ntMf8vMeSgkzgN3U6ib3LVzpXvvm3y8/qbN67b/ujSjcJlA9LtJCajMeu93y7HHDdpCq2R2TlxWLkU3cPDgxBiu+UPTxOeDrd9VnNf7nbuFlOXL35ju1U6IeSZ52KoHKuutpYQolKpWn0m8ER3kby/OXVW+Ph9u3dwHzwhhPz4/ZV/rXyl6U3LBg4aQuVYwi0SijWRdevm+CUqPe64s+m3t3r79Ohxx53u7kr+hxOoJnQXyeVL30aOD/n7i7O+OnaU27qrvVmz/vV/NP1S5DFjn6ByLHQSp6G7SHz7DbQ93v1+Bvddn/qG+n8uX2S7wumuXr2bffHWXpLoJISQf6/6677dO7idOULI6cryF2PDT1ec5P4YqBnF3eyUCnZOHFZ2p3x9fd3d3c9VVYwa/Qj/0W7zuf2FhX9/M3k5IaSx0fBC1CRPr+4NdbW2bfmHwyY++PBY/gcihJyt+lqhUPj5+VEZDVpAd5EQQk4c/5LrfSoPT6vVavdJzz/d3Wv8pKlUDiTcIqFYE0+112FtM3dRmvjg4CuXfnnN/f7H/6O1GSNQTagvEovFsv/DXfs/3NWtWzcPT6+mX81GCPHrP3ByxEwqB0IncRq6i2Tck1NSX/8Hd7XurZs3ZoWPV6o8Gg36pu8Ch0+fxf9ARCKdhBByoqhg+5ZU8uvnvZq2VrWX96tvbOB/CBt2ThxWdqfkcnlgYNCp8lJaA8a88FLUrATbH+tu3bQtbk3I6OS3N9M60Kny0sDAoKZfeAkCob5IbBrq6+yyVO97+67/zwe0buMp3CIRriZCE6gmdAvSdGfu559/tstSAwOGvvufD9woXbSBTuI0dBfJ7Xf+ae07W5p+N4u+ob5plprw9LQYSp/tkFwn0TfUN22tvXr7bs7d38e3H8VDsHPiiD8Dm+Bgzf6Dh1t/XpstXvV/j4z7c85/NpVpv7px/aqnp3rgoKETp0ROCp/etEvydOpkycQJ42iNBi2juEiejpzZ/Taf4oK86nOnb1y7Wnvrppu74vY77xowaPDDYyc+8fQ0ip8OE3SRUD9xnEO4mlAsyIhRoTkHC4/s/7jkq3zd+TM1N65Zrdbu3j7+Q4aNnTh54uRIqSwSsEP3rHno8QkffK7dtW3zV18c+bb6fH1draur/PY77woIHDEpPGr0o9R+rVLpJLMXvHLks4++Li2+fvVqQ0Ndd+/b+g0MeGzCpGeejaH18sOGnROHoTil0WjS0tLq62ppbQkQQkY+OKbp9/RRV19Xq7twTqP5u3CHgKYoLpK7e/V+Lu6F5+JeoDKxFgi9SIQ4cZr69MuK1p/UToLWhG5BBvgPHiD8PdbRSZyM+llz5109E19envjyciqjNUtCneTRcU8+Ou5JKrNqGVMnDitv9hFCNBqN1Wq1Xa0mCVUVZVarVaPRiD2RrgKLxBFqYgcFgVZhkThCTXhiKE4FBASoVCrtV/liT6QdtIX5KpUqICBA7Il0FVgkjlATOygItAqLxBFqwhNDcUoul0dEROzdmUX99vkCsVgse3dmRUREsHARXBeBReIINbGDgkCrsEgcoSY8MRSnCCEJCQmXL32b//lBsSfSJseOHLjy3cXExESxJ9K1YJE4Qk3soCDQKiwSR6gJHzKr1Sr2HH4neORIhdrn3azdYk+kdfOjpzTW1RQVHRd7Ih1RUlKi0Wi0Wu2IESPEnku7YZE4Qk3soCDQKiwSR6hJh7G1O0UImZ+Y+OXRQxd1F8SeSCsu6i7kHz00fz4rubhLwSJxhJrYQUGgVVgkjlCTDmMuTkVGRnp7e+/ali72RFqxa1u6j49PRESE2BPpirBIHKEmdlAQaBUWiSPUpMOYi1NKpTIxMTE7a+OFs1Viz+UPnT9TlZ25ISEhQamk8OVl0F5YJI5QEzsoCLQKi8QRatJhzF07RQjR6/VBw4e7KdUZew4xcsV+U2azOW5KmMlQV3riBAvfYt0xkr52imCRNAc1sYOCQKuwSByhJh3D3O4UIUSpVGZmZFSeLNm26R2x59KMrRvfrjxZkpmRwdQvsqvBInGEmthBQaBVWCSOUJOOYTFOEUIeeOCBpKSktJQ1rO03nj9T9V7KmkWLFoWEhIg9l64Oi8QRamIHBYFWYZE4Qk06gMU3+zi2/cYtuw/K5XKxp0MIISaTadbUcQzuMXaA1N/s42CROEJN7KAg0CosEkeoSXsxujtFCFEqlVmZmacrylYkzWXhJq0Wi2X5wjmnK8oY3GPssrBIHKEmdlAQaBUWiSPUpL3YjVOEkJCQkO3btx/8ePc/ly8SdxfNarWuXbrw0L49O3bsYHCPsSuzLZK1y5LEXyTLklhYJGydOAzUhK2CoJMwCZ3EEVsnDhs1aQHTcYoQEh4evmnTptxtm5OXLhQrIFssljVLXtq9PcPX13fs2LGizAFaYDabrVbr7ve3iL9I3t+yadOmqVOnijKHphg6cdioCUMF2Z7h6+sbFhYmyhygBSaTCZ3EDkMnDjM1+SPMfQbS0axZswghs2fPrqu99WrKBie/iWsymZYvnHNo357ly5e/8847EyZM2L9/f/fu3Z05B2jBzp07p0+fHh0dPXr06Llz54q7SDZv3swtVxYwcuKwUxNGCsJ1kvHjxx84cMDLy8uZc4AW7NixY8aMGTExMaGhoegkTTFy4jBVk2ZJIE4RQmbNmuXl5RUVFXXpm+pVr6f1G+jvnOOeP1O16uV5pyvKcnJypk6d+vTTT48dOxaJih1clpo5c+bmzZtdXFy8vb1FXyTOOWgbMXLiOOegbcFIQZ566qmwsDAkKnZwWSo6Ojo9PR2dxBEjJ45zDtphrL/ZZxMeHp6Xl2fU10b9eXRGaorZbBb0cGazOSM1JWpiqFFfm5eXx/0iNRrN4cOHq6qqJkyYcPPmTUEnAK2yy1KEjUXCGtTEDgsFCQ4OPnToUFVV1fjx42/duiXoBKBVdlmKsLFIWIOatEoycYoQEhISUnrixF9efPHdf62OmxIm3P0wzp+pipsS9u6/Vi9YsKD0xImmF74hUTHCMUtxWFgkrEFN7LBQECQqRjhmKQ4Li4Q1qEnL2L3vVAsKCgpi4+J0Ol1kzJxpM+J7+/alNfJF3YVd29KzMzf4+vllZWb+0W9Rq9WOHTvW399fuu/6Sfq+U3+UpZoSfZEwCDWxI3pBiouLw8LC/P398a6fKP4oSzUl+iJhEGrSLEnGKUKIXq9PTk5OTU29fv166CNh02bGj35s/B+dD62yWCzHjhzYtTU9/+ghHx+fhISEJUuWtPzdilJPVNKNU23JUhzRFwmDUBM7ohcEiUosbclSHNEXCYNQE0dSjVMcvV6fnZ29fn1qcXFRz3v6PB0ZrQkJ9R8c6OGpbss/r6+rraoo0xbm792ZdeW7iyNH3p+YmBAREdHG36KkE5VE41Tbs5SNuIuETaiJHXELgkTlfG3PUjY4axyhJk1JO07ZFBUVpaam5uTkNDQ0yGQyv34D/IcOHzQ0aID/EE+12s1d4ebmZjQajY2Gutras1VfnyovPXWyRHfhnNVqValUERERiYmJwcHB7T2udBOVFONUB7JUU2ItEpahJnbEKggSlTN1IEs1hbPGEWpCOk2c4pjN5srKSq1Wq9Vqi4u1ZWWlBoPB8WkKhSIwMCg4WMMJCAhwde34DSMkmqgkF6d4ZikbURYJ41ATO6IUBInKOXhmKRucNY66eE06VZyyYzabq6urGxoaDAZDY2Oju7u7QqFQqVR+fn50f3lSTFTSilO0spQjpy0SCUFN7DitIEhUQqOVpRzhrHHU1WrSmeOUM0kuUUkoTgmXpQBYg0QlHOGyFACR1n2nWIb7UQkEWQq6FNyPSiDIUiA0xClqkKioQ5aCLgiJijpkKXACxCmakKgoQpaCLguJiiJkKXAOxCnKkKioQJaCLg6JigpkKXAaxCn6kKh4QpYCIEhUvCFLgTMhTgkCiarDkKUAbJCoOgxZCpwMcUooSFQdgCwFYAeJqgOQpcD5EKcEhETVLshSAM1ComoXZCkQBeKUsJCo2ghZCqAFSFRthCwFYkGcEhwSVauQpQBahUTVKmQpEBHilDMgUbUAWQqgjZCoWoAsBeJCnHISJKpmIUsBtAsSVbOQpUB0iFPOg0RlB1kKoAOQqOwgSwELEKecConKBlkKoMOQqGyQpYARiFPOhkRFkKUAeEOiIshSwBLEKRF08USFLAVARRdPVMhSwBTEKXF02USFLAVAUZdNVMhSwBrEKdF0wUSFLAVAXRdMVMhSwCDEKTF1qUSFLAUgkC6VqJClgE2IUyLrIokKWQpAUF0kUSFLAbMQp8TX6RMVshSAE3T6RIUsBSxDnGJCJ05UyFIATtOJExWyFDAOcYoVnTJRIUsBOFmnTFTIUsA+xCmGdLJEhSwFIIpOlqiQpUASEKfY0mkSFbIUgIg6TaJClgKpkFmtVrHnAPa0Wu3YsWP9/f3379/fvXt3iiObTCadTldfX19WVhYbG5uZmRkYGOjh4eHr6yuXy2kdBVkKgAXFxcVhYWH+/v4HDhzw8vKiOLKtkxgMBqPR6ObmplAoqHcSZCmQEMQpRtFKVCaTqbKyUqvVarXa4mLtyZNlBoPB8WkKhWLYsMDgYA0nICCgwz0RWQqAHbQSlfM7CbIUSAviFLt4JqqioqLU1NScnJyGhgaZTObXf+CgIcMHDQ3q7z/YU+3lrlDI3dxMRmOjwVBXe+tcVcWp8tJT5SXV589arVaVShUREZGYmBgcHNyugyJLAbCGZ6ISpZMgS4HkIE4xrQOJSq/X79y5c31qqra4uOc9fSY/G6MZFXrf4GEenuq2/PP6utrTFSe1X+Xv3Zl1+dK3wcEjExMTIiMjlUplq/8WWQqATR1IVCJ2EmQpkCLEKda1PVHp9fo1a9akpqbW1NQ8+EhYxMz40EfHdbgZWSyW/M8P5mxN//LoIW9v78TExCVLlrTQCpGlAFjW9kQlbidBlgKJQpySgLYkqoKCgti4OJ1OFxkzZ9qM+N6+fWkd/aLuwq5t6dlZG319fbMyM0NCQhyfgywFwL62JCpxOwmyFEgXbpQgAS3fPUGv1y9evHj06NFuSvWOT48lLUum2AEJIb19+yYtS97+yTE3pTo0NHTx4sV6vb7pE5ClACSh5bsniN5JkKVA0rA7JRnN7lEVFhbGxMbqdLp5SUtnzH7R1dVVuAmYzeatG99+L2WNr5+f7cUlshSAtDS7RyV6J0GWAqlDnJISu0SVm5sbFRV13+DA1evS+g7wd84czp+pWvXyvNMVZdu3bzebzchSAJJjl6hE7yQmkwlZCqQOcUpibIkqKirqpZdeGjdp6qspGyjeN68tTCbT8oVzDu3bY7Vao6OjkaUAJMeWqKZPn75gwQLRO0lMTAyyFEiagDu6IATuOqqHHnqosLAwfMbzf/vHOuc3ILlcvuatdE9P9e7tGaNHj0YHBJAc7jqqMWPGMNJJQkND0UlA0hCnpKe6urqxsXHq9FlL1rwhk8lEmYOLi8vStW/JunWbO3eut7d3eHi4KNMAgA7T6XToJAC04M0+iSksLBwzZszjEyeveSu9WzeRP5hpsViWLog/8tmHeXl5zX7sGQDYhE4CQBfilJTo9fqg4cPdlOotuw86+SqHP2IymWZNHWfU15aeONGW+x0DgOjQSQCow32npGTFihU6nW71ujRGOiAhRC6Xr3o9TVddvXLlSrHnAgBtgk4CQB3ilGQUFBSsW7duXtJSp32SuY36DfR/IWnpunXrCgsLxZ4LALQCnQRACHizTxq4zXl3lTpjz2EGP/9iNpvjpoRhox6AcegkAALB7pQ0JCcn63S6Va+nMdgBCSGurq7cRn1ycrLYcwGAP4ROAiAQ7E5JgF6v79Wr15PTZiQtY7rFpLy25JPc9y9duoSXlQAMQicBEA52pyQgOzu7pqZm2ox4sSfSimkz4q9fv56TkyP2RACgGegkAMLB7pQEBI8cqVD7vJu1W+yJtG5+9JTGupqiouNiTwQA7KGTAAgHu1OsKyoq0hYXR8xk/QUlZ9rM+OLioqKiIrEnAgC/g04CICjsTrEuLi7u4OEjH31xkv+lo99fvvTl/w6fLDleXlJUfe607Ve/KfvT4Ace4j1TQgixWCyTRg8dH/Z4RkYGlQEBgAoqneS9lOQNb65t+TmakNHpOZ91+BAcdBKQHOxOMc1kMuXk5Ex+NobKx3D27vzPP/764ofZWy+crRIoRru4uEx+NiYnJ8dsNgsxPgB0AN1O4gToJCA5iFNMq6ysbGho0IwKFXsi7aAJCW1oaKisrBR7IgDwC1qdROXh0eOOOx3/5+bubntOr9738jwKB50EpMVV7AlAS7RarUwm8x8SSGW0O++6e1J41LARo4aOGPl/K14+cfxLKsPa8R8cKJPJtFrtsGHDhBgfANqLVieJnrsgeu4Cux+aTKaJIYOu/vQD98eI6Dk8j8JBJwFpwe4U07RarV+/ASoPTyqjTYmKezVlQ/iMWfcFDBXuO+Q9PNW+fftrtVqBxgeA9qLbSewc/uQDW5Yaprl/cOAIKsOik4C0IE4xrbhYO2gond7kTIOGjSguRhMEYIWgnWRH5nu2x8/FzaM4MjoJSAjiFLtMJlNZWemgoUFiT6TdBg0NKisrxTWkACwQtJNUlJWUl/xyO4M7/nT34088TXFwdBKQEMQpdul0usbGxv7+g8WeSLsN8B9iMBiqq6vFnggACNtJdjbZmpo2M14ul1McHJ0EJARxil319fWEEE+1l9gTaTdPtZoQ0tDQIPZEAEDATnL92k8H9+3hHru5u0+dHkd3fHQSkBDEKXYZDAZCiLtCIfZE2s3NXUF+nT8AiEu4TrJne6axsZF7PH7SVJ8ed9AdH50EJARxil1Go5EQIndzE3si7ebm5kYIafy1zwKAiATqJGazOXfbZtsf6V6EzkEnAQlBnGIX10pMRqPYE2k3rn27N7mzHwCIRaBO8vn+j3+48h33OCg4RIhL3dFJQEIQp9ilUCgIIY0S3Og2NhrIr/MHAHEJ1EmEuz+CDToJSAjiFLs8PDwIIXW1t8SeSLvV1dYSQlQqldgTAQBBOsnpynLb1yrceVfPx554iuLgNugkICH4khl2+fr6uru7n6uqGDX6ESoDHvho979Xv8I9vllzw/bzRXOmy91++XjzYe15/gc6W/W1QqHw8/PjPxQA8ES9k5Df3x8hIjre1VWQ/5Sgk4CEIE6xSy6XBwYGnSovpTVgY6P+2k8/Ov781s0bjj/k41R5aWBgkEAdFgDahXonuVlzff/eXdxjd3fFlCjK90ewQScBCcGbfUwLDtacKi8RexbtdupkSXCwRuxZAMAv6HaSD3ZkGQx67vGEp8Nv87md1sh20ElAQpD6mabRaNLS0urraj081fxHe2rajKemzeA/Tsvq62p1F85pNH8X+kAA0EZ0O0nsvIWx8xbyH6dl6CQgLdidYppGo7FaracrToo9kXaoqiizWq0aDV5TArACnQRAaIhTTAsICFCpVNqv8sWeSDtoC/NVKlVAQIDYEwGAX6CTAAgNcYppcrk8IiJi784si8Ui9lzaxGKx7N2ZFRERgatHAdiBTgIgNMQp1iUkJFy+9G3+5wfFnkibHDty4Mp3FxMTE8WeCAD8DjoJgKBkVqtV7DlAK4JHjlSofd7N2i32RFo3P3pKY11NUdFxsScCAPbQSQCEg90pCZifmPjl0UMXdRfEnkgrLuou5B89NH8+XlACsAidBEA4iFMSEBkZ6e3tvWtbutgTacWubek+Pj4RERFiTwQAmoFOAiAcxCkJUCqViYmJ2VkbL5ytEnsuf+j8marszA0JCQlKpVLsuQBAM9BJAISDa6ekQa/XBw0f7qZUZ+w5xOBHXcxmc9yUMJOhrvTECXz9OwCz0EkABILdKWlQKpWZGRmVJ0u2bXpH7Lk0Y+vGtytPlmRmZKADArAMnQRAIIhTkvHAAw8kJSWlpaxhbaP+/Jmq91LWLFq0KCQkROy5AEAr0EkAhIA3+6TEtlG/ZfdBuVwu9nQIIcRkMs2aOg6b8wASgk4CQB12p6REqVRmZWaerihbkTSXhbsbWyyW5QvnnK4ow+Y8gISgkwBQhzglMSEhIdu3bz/48e5/Ll8k7s6i1Wpduyzp0L49O3bswOY8gLSgkwDQ5bJq1Sqx5wDtExAQ0Lt373++tura1R9DHwnr1k2ETGyxWJKXLtz9/pb09PTp06c7fwIAwBM6CQBFzH1QFtpi1qxZhJDZs2fX1d56NWWDk69+MJlMyxfOObRvz+bNm7mZAIAUoZMA0IJL0SUsNzc3KirqvsGBq15P6zfQ3zkHPX+matXL805XlO3YsWPq1KnOOSgACAedBIA/XDslYeHh4Xl5eUZ9bdSfR2ekppjNZkEPZzabM1JToiaGGvW1eXl56IAAnQM6CQB/2J2SPL1ev2LFipSUlIBhI1avS+s7QJAXl9xLycqTJYsWLVq9ejW+/wGgk0EnAeADcaqTKCgoiI2L0+l0kTFzps2I7+3bl9bIF3UXdm1Lz87c4Ovnl5WZiY/eAHRi6CQAHYM41Xno9frk5OTU1NTr16+HPhI2bWb86MfGu7i4dGw0i8Vy7MiBXVvT848e8vHxSUhIWLJkCV5KAnR66CQAHYA41dno9frs7Oz161OLi4t63tPn6choTUio/+BAD091W/55fV1tVUWZtjB/786sK99dHDny/sTEhIiICLQ/gC4FnQSgXRCnOq2ioqLU1NScnJyGhgaZTObXb4D/0OGDhgYN8B/iqVa7uSvc3NyMRqOx0VBXW3u26utT5aWnTpboLpyzWq0qlSoiIiIxMTE4OFjs/x8AICZ0EoC2QJzq5Mxmc2VlpVar1Wq1xcXasrJSg8Hg+DSFQhEYGBQcrOEEBAS4uuKeZADwC3QSgJYhTnUtZrO5urq6oaHBYDA0Nja6u7srFAqVSuXn54euBwBthE4CYAdxCgAAAIAX3MYTAAAAgBfEKQAAAABeEKcAAAAAeEGcAgAAAOAFcQoAAACAF8QpAAAAAF4QpwAAAAB4QZwCAAAA4AVxCgAAAIAXxCkAAAAAXhCnAAAAAHhBnAIAAADgBXEKAAAAgJf/BwY0o/7eEhEcAAAAAElFTkSuQmCC;" vertex="1" parent="1">
          <mxGeometry x="-10" y="420" width="794" height="285" as="geometry" />
        </mxCell>
        <mxCell id="S_TmdCK1cwZr30OneqsV-4" value="&lt;font face=&quot;Roboto Mono&quot;&gt;{0: [[]]}&lt;/font&gt;" style="text;html=1;strokeColor=none;fillColor=none;align=left;verticalAlign=top;whiteSpace=wrap;rounded=0;spacingLeft=6;" vertex="1" parent="1">
          <mxGeometry x="160" y="200" width="80" height="30" as="geometry" />
        </mxCell>
        <mxCell id="S_TmdCK1cwZr30OneqsV-5" value="&lt;font face=&quot;Roboto Mono&quot;&gt;shortest_paths_to&lt;/font&gt;" style="text;html=1;strokeColor=none;fillColor=none;align=left;verticalAlign=top;whiteSpace=wrap;rounded=0;spacingLeft=6;" vertex="1" parent="1">
          <mxGeometry x="160" y="160" width="160" height="30" as="geometry" />
        </mxCell>
        <mxCell id="S_TmdCK1cwZr30OneqsV-6" value="&lt;font face=&quot;Roboto Mono&quot;&gt;frontier&lt;/font&gt;" style="text;html=1;strokeColor=none;fillColor=none;align=left;verticalAlign=top;whiteSpace=wrap;rounded=0;spacingLeft=6;" vertex="1" parent="1">
          <mxGeometry x="360" y="160" width="160" height="30" as="geometry" />
        </mxCell>
        <mxCell id="S_TmdCK1cwZr30OneqsV-7" value="&lt;font face=&quot;Roboto Mono&quot;&gt;deque([(0, 1), (0, 2)])&lt;/font&gt;" style="text;html=1;strokeColor=none;fillColor=none;align=left;verticalAlign=top;whiteSpace=wrap;rounded=0;spacingLeft=6;" vertex="1" parent="1">
          <mxGeometry x="360" y="200" width="240" height="30" as="geometry" />
        </mxCell>
        <mxCell id="S_TmdCK1cwZr30OneqsV-8" value="&lt;font face=&quot;Roboto Mono&quot;&gt;0&lt;/font&gt;" style="text;html=1;strokeColor=none;fillColor=none;align=left;verticalAlign=top;whiteSpace=wrap;rounded=0;spacingLeft=6;" vertex="1" parent="1">
          <mxGeometry x="160" y="120" width="40" height="30" as="geometry" />
        </mxCell>
        <mxCell id="S_TmdCK1cwZr30OneqsV-9" value="&lt;font face=&quot;Roboto Mono&quot;&gt;Dict[int, List[int]]&lt;/font&gt;" style="text;html=1;strokeColor=none;fillColor=none;align=left;verticalAlign=top;whiteSpace=wrap;rounded=0;spacingLeft=6;" vertex="1" parent="1">
          <mxGeometry x="320" y="120" width="160" height="30" as="geometry" />
        </mxCell>
        <mxCell id="S_TmdCK1cwZr30OneqsV-10" value="&lt;font face=&quot;Roboto Mono&quot;&gt;prev_user_id&lt;/font&gt;" style="text;html=1;strokeColor=none;fillColor=none;align=left;verticalAlign=top;whiteSpace=wrap;rounded=0;spacingLeft=6;" vertex="1" parent="1">
          <mxGeometry x="560" y="160" width="120" height="30" as="geometry" />
        </mxCell>
        <mxCell id="S_TmdCK1cwZr30OneqsV-11" value="&lt;font face=&quot;Roboto Mono&quot;&gt;user_id&lt;/font&gt;" style="text;html=1;strokeColor=none;fillColor=none;align=left;verticalAlign=top;whiteSpace=wrap;rounded=0;spacingLeft=6;" vertex="1" parent="1">
          <mxGeometry x="720" y="160" width="120" height="30" as="geometry" />
        </mxCell>
        <mxCell id="S_TmdCK1cwZr30OneqsV-12" value="&lt;font face=&quot;Roboto Mono&quot;&gt;0&lt;/font&gt;" style="text;html=1;strokeColor=none;fillColor=none;align=left;verticalAlign=top;whiteSpace=wrap;rounded=0;spacingLeft=6;" vertex="1" parent="1">
          <mxGeometry x="560" y="240" width="40" height="30" as="geometry" />
        </mxCell>
        <mxCell id="S_TmdCK1cwZr30OneqsV-13" value="&lt;font face=&quot;Roboto Mono&quot;&gt;1&lt;/font&gt;" style="text;html=1;strokeColor=none;fillColor=none;align=left;verticalAlign=top;whiteSpace=wrap;rounded=0;spacingLeft=6;" vertex="1" parent="1">
          <mxGeometry x="720" y="240" width="40" height="30" as="geometry" />
        </mxCell>
        <mxCell id="S_TmdCK1cwZr30OneqsV-14" value="&lt;font face=&quot;Roboto Mono&quot;&gt;paths_to_prev_user&lt;/font&gt;" style="text;html=1;strokeColor=none;fillColor=none;align=left;verticalAlign=top;whiteSpace=wrap;rounded=0;spacingLeft=6;" vertex="1" parent="1">
          <mxGeometry x="840" y="160" width="160" height="30" as="geometry" />
        </mxCell>
        <mxCell id="S_TmdCK1cwZr30OneqsV-15" value="&lt;font face=&quot;Roboto Mono&quot;&gt;[[]]&lt;/font&gt;" style="text;html=1;strokeColor=none;fillColor=none;align=left;verticalAlign=top;whiteSpace=wrap;rounded=0;spacingLeft=6;" vertex="1" parent="1">
          <mxGeometry x="840" y="240" width="40" height="30" as="geometry" />
        </mxCell>
        <mxCell id="S_TmdCK1cwZr30OneqsV-16" value="&lt;font face=&quot;Roboto Mono&quot;&gt;new_paths_to_user&lt;/font&gt;" style="text;html=1;strokeColor=none;fillColor=none;align=left;verticalAlign=top;whiteSpace=wrap;rounded=0;spacingLeft=6;" vertex="1" parent="1">
          <mxGeometry x="1000" y="160" width="160" height="30" as="geometry" />
        </mxCell>
        <mxCell id="S_TmdCK1cwZr30OneqsV-17" value="&lt;font face=&quot;Roboto Mono&quot;&gt;[[] + [1]]&lt;/font&gt;" style="text;html=1;strokeColor=none;fillColor=none;align=left;verticalAlign=top;whiteSpace=wrap;rounded=0;spacingLeft=6;" vertex="1" parent="1">
          <mxGeometry x="1000" y="240" width="160" height="30" as="geometry" />
        </mxCell>
        <mxCell id="S_TmdCK1cwZr30OneqsV-18" value="&lt;font face=&quot;Roboto Mono&quot;&gt;old_paths_to_user&lt;/font&gt;" style="text;html=1;strokeColor=none;fillColor=none;align=left;verticalAlign=top;whiteSpace=wrap;rounded=0;spacingLeft=6;" vertex="1" parent="1">
          <mxGeometry x="1160" y="160" width="160" height="30" as="geometry" />
        </mxCell>
        <mxCell id="S_TmdCK1cwZr30OneqsV-19" value="&lt;font face=&quot;Roboto Mono&quot;&gt;[]&lt;/font&gt;" style="text;html=1;strokeColor=none;fillColor=none;align=left;verticalAlign=top;whiteSpace=wrap;rounded=0;spacingLeft=6;" vertex="1" parent="1">
          <mxGeometry x="1160" y="240" width="40" height="30" as="geometry" />
        </mxCell>
        <mxCell id="S_TmdCK1cwZr30OneqsV-20" value="&lt;font face=&quot;Roboto Mono&quot;&gt;min_path_length&lt;/font&gt;" style="text;html=1;strokeColor=none;fillColor=none;align=left;verticalAlign=top;whiteSpace=wrap;rounded=0;spacingLeft=6;" vertex="1" parent="1">
          <mxGeometry x="1320" y="160" width="160" height="30" as="geometry" />
        </mxCell>
        <mxCell id="S_TmdCK1cwZr30OneqsV-21" value="&lt;font face=&quot;Roboto Mono&quot;&gt;float(&#39;inf&#39;)&lt;/font&gt;" style="text;html=1;strokeColor=none;fillColor=none;align=left;verticalAlign=top;whiteSpace=wrap;rounded=0;spacingLeft=6;" vertex="1" parent="1">
          <mxGeometry x="1320" y="240" width="120" height="30" as="geometry" />
        </mxCell>
        <mxCell id="S_TmdCK1cwZr30OneqsV-22" value="&lt;font face=&quot;Roboto Mono&quot;&gt;[[1]]&lt;/font&gt;" style="text;html=1;strokeColor=none;fillColor=none;align=left;verticalAlign=top;whiteSpace=wrap;rounded=0;spacingLeft=6;" vertex="1" parent="1">
          <mxGeometry x="1000" y="280" width="120" height="30" as="geometry" />
        </mxCell>
        <mxCell id="S_TmdCK1cwZr30OneqsV-23" value="&lt;font face=&quot;Roboto Mono&quot;&gt;{0: [[]],&lt;br&gt;&amp;nbsp;1: [] + [[1]]}&lt;/font&gt;" style="text;html=1;strokeColor=none;fillColor=none;align=left;verticalAlign=top;whiteSpace=wrap;rounded=0;spacingLeft=6;" vertex="1" parent="1">
          <mxGeometry x="160" y="320" width="160" height="30" as="geometry" />
        </mxCell>
        <mxCell id="S_TmdCK1cwZr30OneqsV-24" value="&lt;font face=&quot;Roboto Mono&quot;&gt;deque([(0, 2)])&lt;/font&gt;" style="text;html=1;strokeColor=none;fillColor=none;align=left;verticalAlign=top;whiteSpace=wrap;rounded=0;spacingLeft=6;" vertex="1" parent="1">
          <mxGeometry x="360" y="240" width="240" height="30" as="geometry" />
        </mxCell>
        <mxCell id="S_TmdCK1cwZr30OneqsV-26" value="&lt;font face=&quot;Roboto Mono&quot;&gt;deque([(0, 2), (1, 2), (2, 3)])&lt;/font&gt;" style="text;html=1;strokeColor=none;fillColor=none;align=left;verticalAlign=top;whiteSpace=wrap;rounded=0;spacingLeft=6;" vertex="1" parent="1">
          <mxGeometry x="360" y="320" width="240" height="30" as="geometry" />
        </mxCell>
      </root>
    </mxGraphModel>
  </diagram>
</mxfile>
